<svg width="784" height="1052" xmlns="http://www.w3.org/2000/svg" version="1.1">
 <defs>
  <clipPath id="clip_0">
   <path id="svg_1" d="m768.32,0.168l-15.681,0l-15.679,0l-15.679,0l-15.68,0l-15.681,0l-15.68,0l-15.68,0l-15.68,0l-15.68,0l-15.68,0l-15.68,0l-15.68,0l-15.679,0l-15.681,0l-15.68,0l-15.679,0l-15.681,0l-15.68,0l-15.68,0l-15.68,0l-15.68,0l-15.68,0l-15.681,0l-15.679,0l-15.68,0l-15.68,0l-15.68,0l-15.68,0l-15.68,0l-15.679,0l-15.681,0l-15.68,0l-15.68,0l-15.679,0l-15.681,0l-15.68,0l-15.68,0l-15.68,0l-15.68,0l-15.68,0l-15.68,0l-15.68,0l-15.68,0l-15.679,0l-15.681,0l-15.68,0l-15.68,0l-15.68,0l-15.68,0l0,21.284l0,21.285l0,21.285l0,21.284l0,21.285l0,21.285l0,21.284l0,21.285l0,21.285l0,21.285l0,21.284l0,21.285l0,21.284l0,21.285l0,21.285l0,21.284l0,21.284l0,21.286l0,21.284l0,21.284l0,21.285l0,21.285l0,21.284l0,21.285l0,21.285l0,21.284l0,21.285l0,21.284l0,21.284l0,21.286l0,21.284l0,21.285l0,21.285l0,21.285l0,21.284l0,21.285l0,21.284l0,21.285l0,21.285l0,21.284l0,21.285l0,21.284l0,21.285l0,21.284l0,21.286l0,21.284l0,21.284l0,21.285l0,21.284l0,8.886l784,0l0,-1051.832l-15.68,0z"/>
  </clipPath>
  <clipPath id="clip_1">
   <path id="svg_2" d="m0,0l784,0l0,1052l-784,0l0,-1052z"/>
  </clipPath>
  <clipPath id="clip_2">
   <path id="svg_3" d="m0,1064l784,0l0,-1064l-784,0l0,1064z"/>
  </clipPath>
  <clipPath id="clip_3">
   <path id="svg_4" d="m129.964,576.192l17.911,-9.898l0,-68.817l-17.911,9.898l0,68.817z"/>
  </clipPath>
  <clipPath id="clip_4">
   <path id="svg_5" d="m154.946,493.706l0,47.135l17.911,-9.898l0,-47.135l-17.911,9.898z"/>
  </clipPath>
  <clipPath id="clip_5">
   <path id="svg_6" d="m104.982,569.122l17.912,-9.898l0,-47.135l-17.912,9.898l0,47.135z"/>
  </clipPath>
  <path d="m0.78174,0.58545l-0.30762,0l0,-0.58545l-0.15674,0l0,0.58545l-0.30761,0l0,0.11475l0.77197,0l0,-0.11475z" id="font_6_57"/>
  <path d="m0.4778,0.21484l-0.25319,0l0,-0.21484l-0.15723,0l0,0.7002l0.56186,0c0.04365,0 0.08412,-0.01091 0.12142,-0.03272c0.0373,-0.02181 0.06686,-0.05135 0.08868,-0.08862c0.02182,-0.03727 0.03273,-0.07772 0.03273,-0.12134c0,-0.04037 -0.00944,-0.07821 -0.02834,-0.11353c-0.01888,-0.03531 -0.0446,-0.06429 -0.07716,-0.08691c-0.03256,-0.02262 -0.0687,-0.03638 -0.10843,-0.04126l0.20319,-0.21582l-0.18118,0l-0.20235,0.21484m-0.25319,0.37061l0,-0.25635l0.36168,0c0.0352,0 0.06542,0.01262 0.09067,0.03784c0.02525,0.02523 0.03788,0.05542 0.03788,0.09058c0,0.03516 -0.01263,0.06527 -0.03788,0.09033c-0.02525,0.02507 -0.05547,0.0376 -0.09067,0.0376l-0.36168,0z" id="font_6_55"/>
  <path d="m0.38379,0.7002l0.21142,0l0.37891,-0.7002l-0.16748,0l-0.06836,0.12451l-0.49756,0l-0.06689,-0.12451l-0.16895,0l0.37891,0.7002m-0.08057,-0.45997l0.37305,0l-0.18604,0.34522l-0.18701,-0.34522z" id="font_6_38"/>
  <path d="m0.75977,0.26807l0,0.16406c0,0.04232 -0.01499,0.07845 -0.04497,0.1084c-0.02997,0.02995 -0.06613,0.04492 -0.10849,0.04492l-0.38072,0l0,-0.47119l0.38072,0c0.04236,0 0.07852,0.01505 0.10849,0.04516c0.02998,0.03011 0.04497,0.06633 0.04497,0.10865m-0.69239,0.43213l0.58139,0c0.03616,0 0.07093,-0.00717 0.10431,-0.02149c0.03339,-0.01432 0.06205,-0.03345 0.08599,-0.05737c0.02394,-0.02393 0.04308,-0.05241 0.0574,-0.08545c0.01433,-0.03304 0.0215,-0.06763 0.0215,-0.10376l0,-0.16406c0,-0.03614 -0.00717,-0.07072 -0.0215,-0.10376c-0.01432,-0.03304 -0.03346,-0.06153 -0.0574,-0.08545c-0.02394,-0.02393 -0.0526,-0.04305 -0.08599,-0.05738c-0.03338,-0.01432 -0.06815,-0.02148 -0.10431,-0.02148l-0.58139,0l0,0.7002z" id="font_6_41"/>
  <path d="m0.80859,0.58545l-0.59521,0l0,-0.14746l0.53857,0l0,-0.11475l-0.53857,0l0,-0.05517c0,-0.04232 0.01505,-0.07854 0.04516,-0.10865c0.03012,-0.03011 0.06633,-0.04516 0.10865,-0.04516l0.4414,0l0,-0.11426l-0.48388,0c-0.04851,0 -0.09335,0.01196 -0.13452,0.03589c-0.04118,0.02392 -0.07373,0.05648 -0.09766,0.09765c-0.02393,0.04118 -0.03589,0.08602 -0.03589,0.13453l0,0.43213l0.75195,0l0,-0.11475z" id="font_6_42"/>
  <path d="m0.05664,0.7002l0.15674,0l0,-0.43213c0,-0.04232 0.01505,-0.07854 0.04516,-0.10865c0.03012,-0.03011 0.06633,-0.04516 0.10865,-0.04516l0.46435,0l0,-0.11426l-0.50683,0c-0.04851,0 -0.09335,0.01196 -0.13452,0.03589c-0.04118,0.02392 -0.07373,0.05648 -0.09766,0.09765c-0.02393,0.04118 -0.03589,0.08602 -0.03589,0.13453l0,0.43213z" id="font_6_49"/>
  <path d="m0.2041,0.43213l0,-0.16406c0,-0.04232 0.01507,-0.07854 0.0452,-0.10865c0.03014,-0.03011 0.06638,-0.04516 0.10873,-0.04516l0.29663,0c0.04235,0 0.07859,0.01505 0.10872,0.04516c0.03014,0.03011 0.04521,0.06633 0.04521,0.10865l0,0.16406c0,0.04232 -0.01507,0.07845 -0.04521,0.1084c-0.03013,0.02995 -0.06637,0.04492 -0.10872,0.04492l-0.29663,0c-0.04235,0 -0.07859,-0.01497 -0.10873,-0.04492c-0.03013,-0.02995 -0.0452,-0.06608 -0.0452,-0.1084m0.76172,0l0,-0.16406c0,-0.04851 -0.01197,-0.09335 -0.0359,-0.13453c-0.02394,-0.04117 -0.05651,-0.07373 -0.09772,-0.09765c-0.0412,-0.02393 -0.08606,-0.03589 -0.13458,-0.03589l-0.38254,0c-0.04852,0 -0.09339,0.01196 -0.13458,0.03589c-0.0412,0.02392 -0.07377,0.05648 -0.09772,0.09765c-0.02394,0.04118 -0.0359,0.08602 -0.0359,0.13453l0,0.16406c0,0.03613 0.00708,0.07064 0.02124,0.10351c0.01417,0.03288 0.03322,0.06137 0.05715,0.08545c0.02395,0.02409 0.05253,0.0433 0.08574,0.05762c0.03323,0.01432 0.06792,0.02149 0.10407,0.02149l0.38254,0c0.03615,0 0.07083,-0.00717 0.10405,-0.02149c0.03322,-0.01432 0.0618,-0.03353 0.08574,-0.05762c0.02394,-0.02408 0.04299,-0.05257 0.05715,-0.08545c0.01418,-0.03287 0.02126,-0.06738 0.02126,-0.10351z" id="font_6_52"/>
  <clipPath id="clip_7">
   <path id="svg_7" d="m0,0l784,0l0,1052l-784,0l0,-1052z"/>
  </clipPath>
  <clipPath id="clip_8">
   <path id="svg_8" d="m825,1081l-41,0l0,-41l41,0l0,41z"/>
  </clipPath>
  <mask id="mask_9">
   <g id="svg_9">
    <clipPath id="clip_10">
     <path id="svg_10" d="m-32768,33820l65535,0l0,-65535l-65535,0l0,65535z"/>
    </clipPath>
    <g id="svg_11" clip-path="url(#clip_10)"/>
   </g>"/&gt;</mask>
 </defs>
 <g>
  <title>Layer 1</title>
  <path opacity="0.82" id="svg_18" d="m0,1058l784,0l0,-1064l-784,0l0,1064z"/>
  <g id="svg_35" clip-path="url(#clip_7)">
   <g id="svg_36" clip-path="url(#clip_8)">
    <g id="svg_37" mask="url(#mask_9)"/>
   </g>
  </g>
 </g>
</svg>