<?xml version="1.0" standalone="no"?>
<!DOCTYPE svg PUBLIC "-//W3C//DTD SVG 20010904//EN"
 "http://www.w3.org/TR/2001/REC-SVG-20010904/DTD/svg10.dtd">
<svg version="1.0" xmlns="http://www.w3.org/2000/svg"
 width="700.000000pt" height="700.000000pt" viewBox="0 0 700.000000 700.000000"
 preserveAspectRatio="xMidYMid meet">
<metadata>
Created by potrace 1.14, written by Peter Selinger 2001-2017
</metadata>
<g transform="translate(0.000000,700.000000) scale(0.100000,-0.100000)"
fill="#000000" stroke="none">
<path d="M5949 6836 c-24 -12 -197 -108 -384 -211 -446 -247 -410 -227 -650
-359 l-210 -116 -5 -482 -5 -481 -90 119 c-49 65 -100 134 -112 152 -13 18
-28 38 -33 45 -6 7 -70 91 -141 187 -72 96 -136 175 -142 174 -7 -1 -224 -118
-482 -261 -526 -291 -513 -284 -685 -378 -69 -38 -127 -70 -129 -72 -3 -2 -4
-330 -4 -729 0 -398 -3 -721 -7 -717 -3 4 -21 42 -40 83 -18 41 -50 111 -71
155 -99 213 -179 387 -179 390 0 2 -29 65 -65 140 -36 76 -65 138 -65 140 0 1
-20 45 -45 97 l-44 96 -333 -185 c-183 -102 -358 -198 -388 -214 -30 -17 -62
-34 -70 -39 -8 -5 -123 -69 -255 -141 -132 -73 -244 -137 -250 -144 -7 -8 -10
-593 -9 -1716 1 -937 2 -1708 3 -1712 0 -5 20 2 44 16 23 13 67 38 97 54 30
17 143 79 250 138 226 125 262 145 350 193 36 19 101 55 145 80 44 25 105 59
135 75 30 17 86 47 123 69 38 21 71 38 75 38 3 0 13 7 22 15 15 14 26 -6 130
-233 62 -136 134 -292 160 -347 26 -55 100 -216 165 -357 65 -142 124 -258
130 -258 7 0 111 55 231 121 120 67 395 218 609 336 215 118 406 225 425 238
l35 22 0 1270 -1 1269 21 -25 c12 -14 45 -60 75 -101 30 -41 57 -77 60 -80 6
-5 117 -155 273 -367 45 -61 84 -112 87 -112 3 -1 298 161 655 358 l650 360 0
1715 c0 944 -2 1716 -6 1716 -3 0 -26 -11 -50 -24z"/>
</g>
</svg>
